<svg width="50" height="95" viewBox="0 0 50 95" fill="none" xmlns="http://www.w3.org/2000/svg">
<path d="M44.0515 43.2107C47.9938 38.2296 50.1756 31.7827 49.6502 24.8091C48.68 11.9247 38.2729 1.53083 25.4663 0.643722C10.2081 -0.414167 0.00564575 -2.04882 0.00564575 13.0795C0.00564575 19.3794 -0.288928 38.9365 3.37889 43.4621C4.86022 45.2885 5.16784 47.817 4.10299 49.9186C3.89002 50.3408 3.67705 50.7677 3.49721 51.2421C1.04095 57.6986 8.19202 62.7935 9.42252 57.5705C9.88159 55.6255 8.98711 53.9509 9.97151 53.3627C11.415 53.2203 10.8754 56.2564 10.5489 62.0392C10.0804 64.34 9.73014 65.8154 10.2649 67.1105C10.9322 68.7329 13.6062 69.5963 13.8192 66.0194C13.9138 64.4302 13.7766 62.7983 13.9895 62.3381C14.1741 61.9349 14.6521 61.6265 15.0591 61.7973C16.2518 62.2907 15.9962 67.1627 15.9962 68.5004C15.6649 78.8516 13.8002 83.3394 15.0828 89.0747C15.5277 91.0624 16.4079 93.0406 18.2868 94.0843C19.115 94.5444 20.0994 94.7152 21.0176 94.4875C23.9566 93.7664 24.4156 90.1041 24.3872 87.1961C24.1317 61.655 23.7909 62.3334 25.206 60.5734C25.897 59.7147 27.1511 59.4538 28.0456 60.0895C28.8738 60.6777 28.8075 61.5364 28.7271 62.3334C27.5912 74.0223 27.0233 76.0432 28.5756 77.3573C29.2288 77.9123 30.1327 78.1021 30.9656 77.9076C33.3367 77.3525 34.837 75.1466 35.3812 72.8553C35.9823 70.3458 35.7172 68.7945 34.8228 55.5211C34.5577 51.6264 37.8753 52.3095 37.5772 55.2602C37.4541 56.4794 37.0471 57.8836 38.0836 58.728C38.8266 59.3352 39.9199 59.1834 40.6298 58.5382C41.8839 57.3997 41.8603 55.6777 41.7372 54.1074C41.6804 53.3864 41.6094 52.67 41.5242 51.9537C41.1551 48.8038 42.0922 45.687 44.0515 43.2107Z" fill="url(#paint0_linear_65_637)"/>
<defs>
<linearGradient id="paint0_linear_65_637" x1="21.7938" y1="111.875" x2="23.4114" y2="36.8393" gradientUnits="userSpaceOnUse">
<stop offset="0.2626" stop-color="#780000"/>
<stop offset="1" stop-color="#EC0000"/>
</linearGradient>
</defs>
</svg>
