<svg width="122" height="43" viewBox="0 0 122 43" fill="none" xmlns="http://www.w3.org/2000/svg">
<path d="M101.193 22.892C102.02 25.6985 101.501 29.8465 101.582 31.8488C101.651 33.5191 101.398 34.8377 101.093 36.3451C100.71 38.2368 100.889 39.6075 103.181 39.461C105.117 39.3373 105.522 38.2628 104.997 36.5405C104.42 34.6521 104.163 32.6172 104.031 30.6474C103.907 28.8111 104.455 25.8548 105.58 24.3376C106.774 22.7259 109.215 22.3287 110.136 20.4501C112.017 16.6017 109.264 13.7268 113.855 11.1221C118.109 8.70624 117.406 11.0472 116.443 14.4007C115.953 16.11 116.268 19.5287 118.962 18.0831C121.533 16.7059 119.597 13.8114 119.166 12.0988C118.42 9.12299 120.476 7.82391 121.433 5.37225C121.939 4.07642 121.997 3.0899 121.997 0.00335741C117.367 0.000101565 15.1585 0.000101565 0.0293157 0.00335741C-0.042018 0.00335741 0.0422854 3.83224 0.0649825 6.45319C0.0844371 8.67694 0.103892 11.9751 0.596743 15.3351C1.32953 20.3361 0.249802 24.992 0.34059 30.0418C0.360044 31.1195 0.457318 35.3489 2.69784 34.0791C4.05642 33.3107 3.54412 28.3618 3.47927 27.0009C3.33336 23.8427 1.99423 19.4375 3.61545 16.4714C4.83785 14.2347 8.10947 14.2086 9.1503 11.8188C9.94145 10.0086 11.1314 5.71412 13.6508 5.80528C16.8414 5.91923 16.141 10.129 16.1442 12.1379C16.1475 15.3807 16.3355 19.1152 18.8192 21.5636C19.9995 22.7292 21.598 22.7878 22.4184 24.1162C23.6116 26.0599 23.9164 32.1484 23.9228 34.473C23.9261 36.6317 23.2387 38.4256 23.4559 40.6103C23.6894 42.9806 24.6816 43.9606 26.5784 41.828C28.2158 39.9852 26.5525 36.5633 26.2477 34.4209C25.8197 31.4256 25.2717 27.2516 28.8157 25.9655C30.6217 25.3111 30.3656 26.5906 31.5912 27.1181C36.7143 29.3288 36.2506 20.6064 37.4438 18.3208C38.9516 15.4263 41.1434 17.8161 42.8327 18.4543C44.7231 19.1705 46.7334 16.0352 47.5473 19.3398C48.0693 21.4627 46.4254 23.5952 46.7399 25.7376C46.9279 27.0236 47.2554 28.4823 48.6367 28.6158C49.6484 28.7134 51.3312 27.5837 51.5614 26.5841C52.0672 24.4125 50.9551 21.8338 50.5562 19.7143C50.0796 17.178 49.2884 14.2444 50.3098 11.796C51.7754 8.28298 55.1281 5.83784 58.8536 6.02017C60.6629 6.10807 62.751 7.13692 64.2393 8.0974C66.3534 9.46485 66.1135 11.5193 67.7736 13.03C71.1295 16.0905 72.7864 10.816 75.8213 11.2458C77.0794 11.4249 77.6598 12.7891 79.1027 12.7337C80.458 12.6816 81.1454 11.2653 82.3873 11.0439C87.6368 10.1063 86.878 18.7277 86.5992 21.4464C86.45 22.918 86.3625 24.4776 87.8572 25.0929C89.2191 25.6497 90.9246 24.6729 91.1354 23.1427C91.4369 20.9808 89.1542 17.1975 90.6814 15.2831C92.6042 12.8705 95.0036 16.9403 95.8661 18.3208C96.881 19.9487 97.2344 19.6817 98.9042 20.1766C100.104 20.525 100.801 21.5571 101.193 22.892Z" fill="url(#paint0_linear_65_622)"/>
<defs>
<linearGradient id="paint0_linear_65_622" x1="61.951" y1="42.3807" x2="60.839" y2="3.89527" gradientUnits="userSpaceOnUse">
<stop stop-color="#780000"/>
<stop offset="1" stop-color="#CE0101"/>
</linearGradient>
</defs>
</svg>
