<svg width="82" height="78" viewBox="0 0 82 78" fill="none" xmlns="http://www.w3.org/2000/svg">
<path d="M21.42 33.3834C18.3355 29.4839 16.6285 24.4369 17.0395 18.9776C17.7986 8.89087 25.9412 0.75392 35.9611 0.0594388C47.8991 -0.76874 81.979 7.13412 81.979 18.9774C81.979 23.9094 80.2535 28.4328 77.3838 31.9758C76.2248 33.4056 75.9841 35.385 76.8172 37.0303C76.9838 37.3608 77.1505 37.695 77.2912 38.0664C79.213 43.1209 73.6179 47.1095 72.6552 43.0206C72.296 41.498 72.9959 40.187 72.2257 39.7265C71.0963 39.6151 71.5184 41.9919 71.7739 46.519C72.1405 48.3202 72.4145 49.4752 71.9961 50.4891C71.474 51.7592 69.3819 52.4351 69.2152 49.6349C69.1412 48.3908 69.2486 47.1133 69.0819 46.753C68.9375 46.4373 68.5635 46.1959 68.2451 46.3296C67.312 46.7159 67.5119 50.53 67.5119 51.5773C67.7711 59.6808 69.2301 63.194 68.2266 67.684C67.8785 69.2401 67.1898 70.7888 65.7197 71.6058C65.0717 71.966 64.3016 72.0997 63.5832 71.9215C61.2837 71.357 60.9245 68.4899 60.9468 66.2134C61.1467 46.2182 61.4133 46.7493 60.3062 45.3715C59.7656 44.6993 58.7843 44.495 58.0845 44.9927C57.4365 45.4532 57.4883 46.1254 57.5512 46.7493C58.4399 55.9001 58.8843 57.4822 57.6697 58.5109C57.1587 58.9454 56.4515 59.094 55.7998 58.9417C53.9447 58.5072 52.7708 56.7803 52.345 54.9865C51.8748 53.0219 52.0821 51.8075 52.782 41.4163C52.9893 38.3672 50.3936 38.902 50.6269 41.212C50.7232 42.1665 51.0416 43.2657 50.2307 43.9268C49.6493 44.4022 48.794 44.2833 48.2385 43.7782C47.2573 42.8869 47.2758 41.5388 47.3721 40.3096C47.4165 39.7451 19.7113 32.5366 19.7779 31.9758C20.0668 29.5099 22.953 35.322 21.42 33.3834Z" fill="url(#paint0_linear_65_643)"/>
<path d="M35.759 68.2099C35.8584 68.7033 36.0856 69.2678 36.573 69.3627C36.999 69.4481 37.4013 69.1208 37.6379 68.7555C38.078 68.0866 38.1964 67.2517 38.1964 66.4499C38.1964 65.7526 38.0828 64.9936 37.5811 64.5097C35.5129 62.5315 35.5792 67.3181 35.759 68.2099Z" fill="url(#paint1_linear_65_643)"/>
<path d="M0.112575 72.4557C-0.0294051 73.5895 -0.133524 74.7754 0.424931 75.8238C0.642634 76.2318 0.969189 76.5876 1.3762 76.8058C2.64929 77.4747 3.84665 76.5829 4.52816 75.5534C5.30905 74.3627 5.6498 72.8921 5.47469 71.4784C5.39424 70.8475 4.61808 68.1198 3.90345 65.6956C3.56743 64.5523 1.94412 64.5903 1.66016 65.7478C0.978654 68.504 0.197763 71.7583 0.112575 72.4557Z" fill="url(#paint2_linear_65_643)"/>
<path d="M4.10689 61.7915C4.10689 62.4888 3.5437 63.0581 2.848 63.0581C2.1523 63.0581 1.58911 62.4888 1.58911 61.7915C1.58911 61.0941 2.1523 60.5248 2.848 60.5248C3.5437 60.5248 4.10689 61.0941 4.10689 61.7915Z" fill="url(#paint3_linear_65_643)"/>
<path d="M8.77339 72.2043C8.77339 72.6076 8.44684 72.9349 8.04929 72.9349C7.64702 72.9349 7.3252 72.6076 7.3252 72.2043C7.3252 71.8011 7.65175 71.4738 8.04929 71.4738C8.44684 71.4738 8.77339 71.8011 8.77339 72.2043Z" fill="url(#paint4_linear_65_643)"/>
<path d="M37.7704 59.7326C37.7704 60.0456 37.5196 60.2971 37.2072 60.2971C36.8949 60.2971 36.644 60.0456 36.644 59.7326C36.644 59.4195 36.8949 59.168 37.2072 59.168C37.5196 59.168 37.7704 59.4195 37.7704 59.7326Z" fill="url(#paint5_linear_65_643)"/>
<defs>
<linearGradient id="paint0_linear_65_643" x1="62.9759" y1="85.5334" x2="61.7088" y2="26.7911" gradientUnits="userSpaceOnUse">
<stop offset="0.2626" stop-color="#780000"/>
<stop offset="1" stop-color="#EC0000"/>
</linearGradient>
<linearGradient id="paint1_linear_65_643" x1="35.9723" y1="111.677" x2="37.5898" y2="36.6412" gradientUnits="userSpaceOnUse">
<stop offset="0.2626" stop-color="#780000"/>
<stop offset="1" stop-color="#EC0000"/>
</linearGradient>
<linearGradient id="paint2_linear_65_643" x1="1.94341" y1="110.943" x2="3.56097" y2="35.9074" gradientUnits="userSpaceOnUse">
<stop offset="0.2626" stop-color="#780000"/>
<stop offset="1" stop-color="#EC0000"/>
</linearGradient>
<linearGradient id="paint3_linear_65_643" x1="1.79342" y1="110.94" x2="3.41093" y2="35.9045" gradientUnits="userSpaceOnUse">
<stop offset="0.2626" stop-color="#780000"/>
<stop offset="1" stop-color="#EC0000"/>
</linearGradient>
<linearGradient id="paint4_linear_65_643" x1="7.21474" y1="111.057" x2="8.8323" y2="36.0211" gradientUnits="userSpaceOnUse">
<stop offset="0.2626" stop-color="#780000"/>
<stop offset="1" stop-color="#EC0000"/>
</linearGradient>
<linearGradient id="paint5_linear_65_643" x1="36.0941" y1="111.679" x2="37.7116" y2="36.6437" gradientUnits="userSpaceOnUse">
<stop offset="0.2626" stop-color="#780000"/>
<stop offset="1" stop-color="#EC0000"/>
</linearGradient>
</defs>
</svg>
